# xmcd
#
# Track frame offsets:
#	150
#	11590
#	28078
#	46561
#	57038
#	77744
#	89123
#	103253
#	123832
#	146389
#	157264
#
# Disc length: 2447 seconds
#
# Revision: 1
# Processed by: cddbd v1.5.2PL0 Copyright (c) Steve Scherf et al.
# Submitted via: audiograbber 1.83.01
#
DISCID=8a098d0b
DTITLE=Colter Wall - Colter Wall
DYEAR=2017
DGENRE=Country
TTITLE0=Thirteen Silver Dollars
TTITLE1=Codeine Dream
TTITLE2=Me and Big Dave
TTITLE3=Motorcycle
TTITLE4=Kate McCannon
TTITLE5=W.B. 's Talkin
TTITLE6=Snake Mountain Blues
TTITLE7=You LookTo Yours
TTITLE8=Transendental Ramblin' Railroad Blues
TTITLE9=Fraulein
TTITLE10=Bald Butte
EXTD=
EXTT0=
EXTT1=
EXTT2=
EXTT3=
EXTT4=
EXTT5=
EXTT6=
EXTT7=
EXTT8=
EXTT9=
EXTT10=
PLAYORDER=
